<svg xmlns="http://www.w3.org/2000/svg" viewBox="0 0 24 24" width="24" height="24"><g fill="none" stroke="#26231F" stroke-width="1.8" stroke-linecap="round" stroke-linejoin="round"><rect x="4" y="7" width="16" height="10" rx="1.2"/><rect x="6" y="9.5" width="1.4" height="1.4" rx="0.2"/><rect x="8.8" y="9.5" width="1.4" height="1.4" rx="0.2"/><rect x="11.6" y="9.5" width="1.4" height="1.4" rx="0.2"/><rect x="14.4" y="9.5" width="1.4" height="1.4" rx="0.2"/><rect x="17.2" y="9.5" width="1.4" height="1.4" rx="0.2"/><rect x="6" y="12.5" width="1.4" height="1.4" rx="0.2"/><rect x="8.8" y="12.5" width="1.4" height="1.4" rx="0.2"/><rect x="11.6" y="12.5" width="1.4" height="1.4" rx="0.2"/><rect x="14.4" y="12.5" width="1.4" height="1.4" rx="0.2"/><rect x="17.2" y="12.5" width="1.4" height="1.4" rx="0.2"/><rect x="8" y="15" width="8" height="1.2" rx="0.2"/></g></svg>
